<svg width="305" height="362" viewBox="0 0 305 362" fill="none" xmlns="http://www.w3.org/2000/svg">
<path fill-rule="evenodd" clip-rule="evenodd" d="M269 228.168H107V319.21H131.75C131.75 319.127 131.75 319.043 131.75 318.96C131.75 284.564 156.833 256.681 187.775 256.681C218.717 256.681 243.8 284.564 243.8 318.96C243.8 319.043 243.8 319.127 243.8 319.21H269V228.168Z" fill="#E9795B"/>
<path fill-rule="evenodd" clip-rule="evenodd" d="M305 66.0168H188C188 65.9288 188 65.8408 188 65.7528C188 29.4385 214.191 0 246.5 0C278.809 0 305 29.4385 305 65.7528C305 65.8408 305 65.9288 305 66.0168Z" fill="#A5DAD2"/>
<path d="M76.249 320.089L9.41921e-07 319.772L61.3625 236.036L76.249 320.089Z" fill="#DFCD3D"/>
<path d="M80.5 268.631L132 339.442H29L80.5 268.631Z" fill="#F1DD40"/>
<rect x="182" y="147.241" width="72" height="80.9265" fill="#E89F55"/>
<rect x="218" y="66.3147" width="72" height="80.9265" fill="#A59BCE"/>
</svg>
