<svg width="315" height="192" viewBox="0 0 315 192" fill="none" xmlns="http://www.w3.org/2000/svg">
<path fill-rule="evenodd" clip-rule="evenodd" d="M76.8941 105.255H193.389V168.2H175.591C175.591 168.142 175.591 168.084 175.591 168.027C175.591 144.246 157.554 124.968 135.304 124.968C113.053 124.968 95.0157 144.246 95.0157 168.027C95.0157 168.084 95.0158 168.142 95.016 168.2H76.8941V105.255Z" fill="#E9795B"/>
<path fill-rule="evenodd" clip-rule="evenodd" d="M92.7148 168.609H176.849C176.85 168.549 176.85 168.488 176.85 168.427C176.85 143.32 158.015 122.967 134.782 122.967C111.549 122.967 92.7145 143.32 92.7145 168.427C92.7145 168.488 92.7146 168.549 92.7148 168.609Z" fill="#A0D3CB"/>
<path d="M22.0631 162.383L76.8941 162.163L32.768 104.27L22.0631 162.383Z" fill="#DFCD3D"/>
<path d="M160.67 0L123.636 48.9568H197.704L160.67 0Z" fill="#F1DD40"/>
<rect width="51.7756" height="55.9506" transform="matrix(-1 0 0 1 175.412 48.8992)" fill="#E89F55"/>
<rect width="51.7756" height="55.9506" transform="matrix(-1 0 0 1 108.535 125.844)" fill="#A59BCE"/>
<circle cx="245.704" cy="118.165" r="69" fill="#A5DAD2"/>
<path fill-rule="evenodd" clip-rule="evenodd" d="M185.498 151.898C179.898 141.924 176.704 130.418 176.704 118.165C176.704 90.3818 193.124 66.434 216.79 55.4969C216.932 55.4957 217.075 55.4951 217.218 55.4951C245.886 55.4951 269.126 79.5855 269.126 109.302C269.126 139.019 245.886 163.11 217.218 163.11C205.272 163.11 194.27 158.927 185.498 151.898Z" fill="#E9795B"/>
<path fill-rule="evenodd" clip-rule="evenodd" d="M188.181 79.9856L196.666 80.2178L205.974 61.566C209.446 59.1715 213.152 57.1319 217.046 55.4951L224.092 83.5954L258.997 91.3076L229.387 114.329L233.27 154.544L205.234 129.946L181.073 142.687C179.715 138.87 178.669 134.888 177.97 130.776L185.012 108.864L178.983 101.415C180.874 93.6394 184.022 86.4081 188.181 79.9856Z" fill="#F1DD40"/>
<path fill-rule="evenodd" clip-rule="evenodd" d="M76.8311 105.255H177.846C179.417 96.9569 182.473 89.1843 186.729 82.2243C187.178 81.4677 187.641 80.7213 188.117 79.9856L188.156 79.9867C192.866 72.91 198.847 66.7526 205.774 61.8408L205.911 61.566C208.346 59.8866 210.896 58.3818 213.545 57.0681C214.59 56.5181 215.651 55.994 216.727 55.4969C225.521 51.4324 235.316 49.1648 245.641 49.1648C283.748 49.1648 314.641 80.0571 314.641 118.165C314.641 156.272 283.748 187.165 245.641 187.165C224.723 187.165 205.98 177.857 193.326 163.158V168.2H176.786L176.786 168.253C176.787 168.311 176.787 168.369 176.787 168.427L176.787 168.525L176.786 168.609H108.472V181.794H56.6962V162.244L22 162.383L32.7049 104.27L56.6962 135.747V125.843H76.8311L76.8311 105.255ZM160.607 0L123.617 48.8992H123.573V104.85H175.349V48.9568H197.641L160.607 0Z" fill="url(#paint0_linear_12_811)" fill-opacity="0.6"/>
<defs>
<linearGradient id="paint0_linear_12_811" x1="102.5" y1="85.5" x2="102.5" y2="-77.5" gradientUnits="userSpaceOnUse">
<stop stop-color="#FFF9DC"/>
<stop offset="0.0001" stop-color="#6D9122" stop-opacity="0"/>
</linearGradient>
</defs>
</svg>
