<svg width="316" height="362" viewBox="0 0 316 362" fill="none" xmlns="http://www.w3.org/2000/svg">
<path fill-rule="evenodd" clip-rule="evenodd" d="M280 228.168H118V319.21H142.75C142.75 319.127 142.75 319.043 142.75 318.96C142.75 284.564 167.833 256.681 198.775 256.681C229.717 256.681 254.8 284.564 254.8 318.96C254.8 319.043 254.8 319.127 254.8 319.21H280V228.168Z" fill="#E9795B"/>
<path fill-rule="evenodd" clip-rule="evenodd" d="M316 66.0168H199C199 65.9288 199 65.8408 199 65.7528C199 29.4385 225.191 0 257.5 0C289.809 0 316 29.4385 316 65.7528C316 65.8408 316 65.9288 316 66.0168Z" fill="#A5DAD2"/>
<path d="M87.249 320.089L11 319.772L72.3625 236.036L87.249 320.089Z" fill="#DFCD3D"/>
<path d="M91.5 268.631L143 339.442H40L91.5 268.631Z" fill="#F1DD40"/>
<rect x="193" y="147.241" width="72" height="80.9265" fill="#E89F55"/>
<rect x="229" y="66.3147" width="72" height="80.9265" fill="#A59BCE"/>
<path d="M8.64 62.0053C8.64 62.032 8.65333 62.232 8.68 62.6053L5.56 62.8853L12.2 88.9653L19.64 62.0053H20.24L20.12 62.3253L20.28 62.0053L27.32 89.0453L34.36 63.4053C34.36 63.1387 34.24 62.992 34 62.9653L30.24 62.6453L30.2 62.0453L38.04 62.0053C38.04 62.032 38.0533 62.232 38.08 62.6053L35.48 62.8453L27.56 90.0053H25.12L19.08 66.1253L12.48 90.0053H10L3.12 63.1653C3.04 62.9787 2.90667 62.872 2.72 62.8453L0.64 62.6453L0.6 62.0453L8.64 62.0053ZM38.4625 80.8053C38.4625 86.5653 40.7025 89.4453 45.1825 89.4453C46.3558 89.4453 47.6092 89.3253 48.9425 89.0853C50.2758 88.8187 51.1292 88.5787 51.5025 88.3653L51.7825 88.7653C51.1692 89.1653 50.1558 89.4987 48.7425 89.7653C47.3558 90.032 46.0758 90.1653 44.9025 90.1653C43.7558 90.1653 42.7158 90.0453 41.7825 89.8053C40.8758 89.5653 39.9425 89.1387 38.9825 88.5253C38.0225 87.912 37.2625 86.952 36.7025 85.6453C36.1425 84.3387 35.8625 82.7387 35.8625 80.8453C35.8625 77.3253 36.7692 74.632 38.5825 72.7653C40.4758 70.8187 42.6758 69.8453 45.1825 69.8453C47.6892 69.8453 49.5958 70.5387 50.9025 71.9253C52.2358 73.312 52.9025 75.2587 52.9025 77.7653C52.9025 78.2987 52.8625 78.872 52.7825 79.4853H38.5025C38.4758 79.7787 38.4625 80.2187 38.4625 80.8053ZM50.5425 77.4853C50.5425 75.4853 50.1025 73.8587 49.2225 72.6053C48.3425 71.3253 47.1425 70.6853 45.6225 70.6853C43.6492 70.6853 41.9825 71.552 40.6225 73.2853C39.5292 74.6453 38.8492 76.4587 38.5825 78.7253H50.5025C50.5292 78.432 50.5425 78.0187 50.5425 77.4853ZM56.1156 90.0453L56.1556 89.4853L58.2356 89.2053C58.4223 89.1787 58.5423 89.0453 58.5956 88.8053V61.4453C58.5956 61.152 58.5156 61.0053 58.3556 61.0053L55.9156 60.9253L55.9556 60.3653C57.6356 60.1253 58.7823 60.0053 59.3956 60.0053C60.0356 60.0053 60.489 60.1787 60.7556 60.5253C61.049 60.872 61.1956 61.2453 61.1956 61.6453V89.2053L64.1956 89.4053C64.1956 89.432 64.1823 89.632 64.1556 90.0053L56.1156 90.0453ZM77.7813 70.5653C75.5146 70.5653 73.6746 71.4587 72.2613 73.2453C70.8746 75.0053 70.1813 77.512 70.1813 80.7653C70.1813 86.552 72.3813 89.4453 76.7813 89.4453C78.5146 89.4453 79.9946 89.2853 81.2213 88.9653C82.4479 88.6187 83.1146 88.4053 83.2213 88.3253L83.5013 88.7653C82.8879 89.1653 81.8746 89.4987 80.4613 89.7653C79.0479 90.032 77.7679 90.1653 76.6213 90.1653C75.4746 90.1653 74.4346 90.0453 73.5013 89.8053C72.5679 89.5653 71.6213 89.1387 70.6613 88.5253C69.7279 87.912 68.9813 86.952 68.4212 85.6453C67.8613 84.312 67.5813 82.6987 67.5813 80.8053C67.5813 77.312 68.4746 74.672 70.2613 72.8853C72.2613 70.832 74.7813 69.8053 77.8213 69.8053C78.7813 69.8053 79.7946 69.9387 80.8613 70.2053C81.9546 70.4453 82.7946 70.832 83.3813 71.3653V76.6053L82.6213 76.8853L82.4213 72.6853C81.8346 72.072 81.1146 71.5653 80.2613 71.1653C79.4346 70.7653 78.6079 70.5653 77.7813 70.5653ZM94.9872 90.1653C92.2139 90.1653 89.9605 89.3653 88.2272 87.7653C86.5205 86.1653 85.6672 83.7253 85.6672 80.4453C85.6672 77.1387 86.5739 74.552 88.3872 72.6853C90.2272 70.792 92.5339 69.8453 95.3072 69.8453C98.0805 69.8453 100.334 70.6453 102.067 72.2453C103.801 73.8453 104.667 76.2987 104.667 79.6053C104.667 82.8853 103.747 85.472 101.907 87.3653C100.094 89.232 97.7872 90.1653 94.9872 90.1653ZM95.2672 70.5653C93.2672 70.5653 91.6005 71.432 90.2672 73.1653C88.9339 74.8987 88.2672 77.2587 88.2672 80.2453C88.2672 83.2053 88.8939 85.4853 90.1472 87.0853C91.4272 88.6587 93.0672 89.4453 95.0672 89.4453C97.0672 89.4453 98.7339 88.5787 100.067 86.8453C101.401 85.112 102.067 82.7653 102.067 79.8053C102.067 76.8453 101.427 74.5653 100.147 72.9653C98.8939 71.3653 97.2672 70.5653 95.2672 70.5653ZM117.323 70.7653C115.723 70.792 113.989 71.3787 112.123 72.5253V89.2053L115.123 89.4053C115.123 89.432 115.109 89.632 115.083 90.0053L107.083 90.0453C107.083 89.8053 107.096 89.6187 107.123 89.4853L109.203 89.2053C109.363 89.2053 109.469 89.0853 109.523 88.8453V71.2853C109.469 71.0987 109.389 71.0053 109.283 71.0053L106.883 70.9253L106.923 70.3653C108.363 70.1253 109.456 70.0053 110.203 70.0053C110.949 70.0053 111.456 70.1787 111.723 70.5253C111.989 70.872 112.123 71.2453 112.123 71.6453V72.1253C114.336 70.7387 116.363 69.992 118.203 69.8853C120.736 69.8853 122.456 70.6053 123.363 72.0453C125.683 70.712 127.869 69.992 129.923 69.8853C131.789 69.8853 133.203 70.272 134.163 71.0453C134.616 71.392 135.003 71.9387 135.323 72.6853C135.669 73.4053 135.843 74.272 135.843 75.2853V89.2053L138.843 89.4053C138.843 89.432 138.829 89.632 138.803 90.0053L130.803 90.0453C130.803 89.8053 130.816 89.6187 130.843 89.4853L132.923 89.2053C133.083 89.2053 133.189 89.0853 133.243 88.8453V76.2853C133.243 75.2187 133.109 74.312 132.843 73.5653C132.576 72.792 132.283 72.232 131.963 71.8853C131.643 71.5387 131.243 71.272 130.763 71.0853C130.229 70.872 129.656 70.7653 129.043 70.7653C127.389 70.792 125.589 71.4187 123.643 72.6453C123.989 73.392 124.163 74.272 124.163 75.2853V89.2053L127.163 89.4053C127.163 89.432 127.149 89.632 127.123 90.0053L119.083 90.0453L119.123 89.4853L121.203 89.2053C121.389 89.1787 121.509 89.0453 121.563 88.8053V76.2453C121.563 74.9387 121.389 73.872 121.043 73.0453C120.696 72.192 120.229 71.632 119.643 71.3653C118.843 70.9653 118.069 70.7653 117.323 70.7653ZM143.267 80.8053C143.267 86.5653 145.507 89.4453 149.987 89.4453C151.161 89.4453 152.414 89.3253 153.747 89.0853C155.081 88.8187 155.934 88.5787 156.307 88.3653L156.587 88.7653C155.974 89.1653 154.961 89.4987 153.547 89.7653C152.161 90.032 150.881 90.1653 149.707 90.1653C148.561 90.1653 147.521 90.0453 146.587 89.8053C145.681 89.5653 144.747 89.1387 143.787 88.5253C142.827 87.912 142.067 86.952 141.507 85.6453C140.947 84.3387 140.667 82.7387 140.667 80.8453C140.667 77.3253 141.574 74.632 143.387 72.7653C145.281 70.8187 147.481 69.8453 149.987 69.8453C152.494 69.8453 154.401 70.5387 155.707 71.9253C157.041 73.312 157.707 75.2587 157.707 77.7653C157.707 78.2987 157.667 78.872 157.587 79.4853H143.307C143.281 79.7787 143.267 80.2187 143.267 80.8053ZM155.347 77.4853C155.347 75.4853 154.907 73.8587 154.027 72.6053C153.147 71.3253 151.947 70.6853 150.427 70.6853C148.454 70.6853 146.787 71.552 145.427 73.2853C144.334 74.6453 143.654 76.4587 143.387 78.7253H155.307C155.334 78.432 155.347 78.0187 155.347 77.4853ZM181.775 89.2453L183.335 89.1653L183.455 89.5653C183.428 89.5653 183.241 89.6053 182.895 89.6853C182.095 89.872 181.201 89.9653 180.215 89.9653C179.308 89.912 178.481 89.7653 177.735 89.5253C176.988 89.2587 176.295 88.7253 175.655 87.9253C175.015 87.0987 174.695 86.0453 174.695 84.7653V70.7253H172.655L172.975 70.4053L174.735 70.0453L175.055 66.2053L177.295 66.0053V70.0053H182.135V70.7253H177.295V84.0853C177.295 86.112 177.721 87.4853 178.575 88.2053C179.428 88.8987 180.495 89.2453 181.775 89.2453ZM194.323 90.1653C191.55 90.1653 189.296 89.3653 187.563 87.7653C185.856 86.1653 185.003 83.7253 185.003 80.4453C185.003 77.1387 185.91 74.552 187.723 72.6853C189.563 70.792 191.87 69.8453 194.643 69.8453C197.416 69.8453 199.67 70.6453 201.403 72.2453C203.136 73.8453 204.003 76.2987 204.003 79.6053C204.003 82.8853 203.083 85.472 201.243 87.3653C199.43 89.232 197.123 90.1653 194.323 90.1653ZM194.603 70.5653C192.603 70.5653 190.936 71.432 189.603 73.1653C188.27 74.8987 187.603 77.2587 187.603 80.2453C187.603 83.2053 188.23 85.4853 189.483 87.0853C190.763 88.6587 192.403 89.4453 194.403 89.4453C196.403 89.4453 198.07 88.5787 199.403 86.8453C200.736 85.112 201.403 82.7653 201.403 79.8053C201.403 76.8453 200.763 74.5653 199.483 72.9653C198.23 71.3653 196.603 70.5653 194.603 70.5653ZM0.6 138.045L0.64 137.485L2.72 137.205C2.90667 137.179 3.06667 137.005 3.2 136.685L11.84 110.005H14.48L23.68 137.245L26.44 137.405C26.44 137.432 26.4267 137.632 26.4 138.005L18.4 138.045C18.4 137.805 18.4133 137.619 18.44 137.485L20.52 137.205C20.7333 137.179 20.84 137.019 20.84 136.725L18.64 130.205H6.16L4.04 137.165L8.68 137.405C8.68 137.432 8.66667 137.632 8.64 138.005L0.6 138.045ZM12.12 110.765L6.4 129.405H18.36L12.12 110.765ZM27.3619 118.645L27.3219 118.045L32.7219 118.005V131.925C32.7219 132.965 32.8685 133.872 33.1619 134.645C33.4552 135.392 33.7752 135.939 34.1219 136.285C34.4952 136.632 34.9219 136.899 35.4019 137.085C36.1485 137.352 36.7752 137.459 37.2819 137.405C38.9085 137.379 40.7619 136.539 42.8419 134.885V119.405C42.7352 119.085 42.5085 118.899 42.1619 118.845L40.0819 118.645C40.0552 118.485 40.0419 118.285 40.0419 118.045L45.4419 118.005V136.165C45.4952 136.832 45.7085 137.165 46.0819 137.165L48.4819 137.285L48.4419 137.885C47.1619 138.099 45.8285 138.205 44.4419 138.205C44.1219 138.179 43.7752 138.005 43.4019 137.685C43.0285 137.339 42.8419 136.912 42.8419 136.405V135.685C40.4152 137.312 38.1219 138.125 35.9619 138.125C35.0552 138.125 33.9885 137.899 32.7619 137.445C31.9619 137.152 31.3219 136.605 30.8419 135.805C30.3619 134.979 30.1219 133.952 30.1219 132.725V119.445C30.1219 119.312 30.0419 119.192 29.8819 119.085C29.7485 118.952 29.6019 118.872 29.4419 118.845L27.3619 118.645ZM62.8984 118.565C60.6318 118.565 58.7918 119.459 57.3784 121.245C55.9918 123.005 55.2984 125.512 55.2984 128.765C55.2984 134.552 57.4984 137.445 61.8984 137.445C63.6318 137.445 65.1118 137.285 66.3384 136.965C67.5651 136.619 68.2318 136.405 68.3384 136.325L68.6184 136.765C68.0051 137.165 66.9918 137.499 65.5784 137.765C64.1651 138.032 62.8851 138.165 61.7384 138.165C60.5918 138.165 59.5518 138.045 58.6184 137.805C57.6851 137.565 56.7384 137.139 55.7784 136.525C54.8451 135.912 54.0984 134.952 53.5384 133.645C52.9784 132.312 52.6984 130.699 52.6984 128.805C52.6984 125.312 53.5918 122.672 55.3784 120.885C57.3784 118.832 59.8984 117.805 62.9384 117.805C63.8984 117.805 64.9118 117.939 65.9784 118.205C67.0718 118.445 67.9118 118.832 68.4984 119.365V124.605L67.7384 124.885L67.5384 120.685C66.9518 120.072 66.2318 119.565 65.3784 119.165C64.5518 118.765 63.7251 118.565 62.8984 118.565ZM71.8188 138.045L71.8587 137.485L73.9388 137.205C74.1254 137.179 74.2454 137.045 74.2988 136.805V109.445C74.2988 109.152 74.2188 109.005 74.0588 109.005L71.6188 108.925L71.6588 108.365C73.3388 108.125 74.4854 108.005 75.0987 108.005C75.7388 108.005 76.1921 108.179 76.4588 108.525C76.7521 108.872 76.8988 109.245 76.8988 109.645V137.205L79.8988 137.405C79.8988 137.432 79.8854 137.632 79.8588 138.005L71.8188 138.045ZM90.8988 137.405C90.8988 137.432 90.8854 137.632 90.8588 138.005H85.8188L76.8988 127.365L83.7788 119.405C83.7788 119.059 83.6721 118.872 83.4588 118.845L81.3788 118.565C81.3521 118.432 81.3388 118.245 81.3388 118.005L89.7388 118.045C89.7388 118.072 89.7521 118.272 89.7787 118.645L85.2188 118.925L78.4988 126.245L88.1388 137.205L90.8988 137.405ZM93.2641 138.045L93.3041 137.485L95.3841 137.205C95.5707 137.179 95.6907 137.045 95.7441 136.805V109.445C95.7441 109.152 95.6641 109.005 95.5041 109.005L93.0641 108.925L93.1041 108.365C94.7841 108.125 95.9307 108.005 96.5441 108.005C97.1841 108.005 97.6374 108.179 97.9041 108.525C98.1974 108.872 98.3441 109.245 98.3441 109.645V137.205L101.344 137.405C101.344 137.432 101.331 137.632 101.304 138.005L93.2641 138.045ZM116.939 136.485H116.819C114.419 137.605 112.086 138.165 109.819 138.165C106.272 138.165 104.392 136.765 104.179 133.965C104.152 133.779 104.139 133.605 104.139 133.445C104.139 131.392 105.486 130.019 108.179 129.325C109.779 128.979 112.659 128.565 116.819 128.085V124.565C116.819 123.445 116.686 122.485 116.419 121.685C116.152 120.885 115.859 120.299 115.539 119.925C115.219 119.525 114.806 119.219 114.299 119.005C113.659 118.739 112.939 118.605 112.139 118.605C111.366 118.605 110.472 118.805 109.459 119.205C107.992 119.819 106.686 120.592 105.539 121.525L105.379 124.645L104.619 124.845V120.005L105.019 119.845C107.099 118.939 108.686 118.392 109.779 118.205C110.872 118.019 111.672 117.925 112.179 117.925C112.686 117.899 113.166 117.899 113.619 117.925C114.099 117.952 114.712 118.072 115.459 118.285C116.206 118.499 116.846 118.805 117.379 119.205C117.939 119.579 118.419 120.152 118.819 120.925C119.219 121.699 119.419 122.619 119.419 123.685V135.925C119.419 136.752 119.632 137.165 120.059 137.165L122.499 137.285L122.459 137.885C120.966 138.099 119.632 138.205 118.459 138.205C118.139 138.179 117.806 138.019 117.459 137.725C117.112 137.405 116.939 136.992 116.939 136.485ZM110.539 137.525C112.512 137.525 114.606 136.832 116.819 135.445V128.845C112.819 128.979 110.299 129.219 109.259 129.565C108.246 129.885 107.539 130.405 107.139 131.125C106.766 131.819 106.579 132.512 106.579 133.205C106.579 133.339 106.579 133.472 106.579 133.605C106.659 134.992 107.072 135.992 107.819 136.605C108.566 137.219 109.472 137.525 110.539 137.525ZM123.919 138.045L123.959 137.485L126.039 137.205C126.279 137.179 126.399 136.992 126.399 136.645V119.325C126.345 119.112 126.265 119.005 126.159 119.005L123.719 118.925L123.759 118.365C125.439 118.125 126.572 118.005 127.159 118.005C128.225 118.005 128.825 118.472 128.959 119.405H128.999V120.245C131.185 118.752 133.279 117.965 135.279 117.885C137.225 117.885 138.705 118.272 139.719 119.045C140.172 119.392 140.572 119.939 140.919 120.685C141.292 121.405 141.479 122.272 141.479 123.285V137.205L144.479 137.405C144.479 137.432 144.465 137.632 144.439 138.005L136.439 138.045C136.439 137.805 136.452 137.619 136.479 137.485L138.559 137.205C138.772 137.179 138.879 136.992 138.879 136.645V124.285C138.879 123.219 138.732 122.312 138.439 121.565C138.172 120.819 137.865 120.272 137.519 119.925C137.172 119.579 136.745 119.312 136.239 119.125C135.652 118.912 135.039 118.805 134.399 118.805C132.799 118.832 130.999 119.459 128.999 120.685V137.205L131.999 137.405C131.999 137.432 131.985 137.632 131.959 138.005L123.919 138.045ZM163.823 109.645V135.925C163.823 136.752 164.036 137.165 164.463 137.165L166.863 137.285L166.823 137.885C165.543 138.099 164.21 138.205 162.823 138.205C162.53 138.179 162.21 138.032 161.863 137.765C161.543 137.499 161.356 137.152 161.303 136.725C159.783 137.685 158.023 138.165 156.023 138.165C154.076 138.165 152.276 137.619 150.623 136.525C149.69 135.912 148.93 134.952 148.343 133.645C147.783 132.312 147.503 130.699 147.503 128.805C147.503 125.312 148.396 122.645 150.183 120.805C152.076 118.832 154.236 117.845 156.663 117.845C158.156 117.845 159.676 118.232 161.223 119.005V109.445C161.223 109.152 161.143 109.005 160.983 109.005L158.543 108.925L158.583 108.365C160.263 108.125 161.41 108.005 162.023 108.005C162.663 108.005 163.116 108.179 163.383 108.525C163.676 108.872 163.823 109.245 163.823 109.645ZM156.543 137.445C158.17 137.445 159.73 137.085 161.223 136.365V119.645C160.05 118.925 158.89 118.565 157.743 118.565C155.45 118.565 153.596 119.445 152.183 121.205C150.796 122.965 150.103 125.485 150.103 128.765C150.103 134.552 152.25 137.445 156.543 137.445ZM189.9 110.805H183.02L182.38 116.085L181.62 115.765L182.02 110.805H181.98L182.06 110.485L182.1 110.005L182.18 110.045V110.005H200.34L200.86 115.765L200.06 116.085L199.42 110.805H192.42V137.245L195.34 137.405C195.34 137.432 195.327 137.632 195.3 138.005L187.3 138.045C187.3 137.805 187.314 137.619 187.34 137.485L189.42 137.205C189.687 137.179 189.847 137.005 189.9 136.685V110.805ZM208.386 138.165C205.612 138.165 203.359 137.365 201.626 135.765C199.919 134.165 199.066 131.725 199.066 128.445C199.066 125.139 199.972 122.552 201.786 120.685C203.626 118.792 205.932 117.845 208.706 117.845C211.479 117.845 213.732 118.645 215.466 120.245C217.199 121.845 218.066 124.299 218.066 127.605C218.066 130.885 217.146 133.472 215.306 135.365C213.492 137.232 211.186 138.165 208.386 138.165ZM208.666 118.565C206.666 118.565 204.999 119.432 203.666 121.165C202.332 122.899 201.666 125.259 201.666 128.245C201.666 131.205 202.292 133.485 203.546 135.085C204.826 136.659 206.466 137.445 208.466 137.445C210.466 137.445 212.132 136.579 213.466 134.845C214.799 133.112 215.466 130.765 215.466 127.805C215.466 124.845 214.826 122.565 213.546 120.965C212.292 119.365 210.666 118.565 208.666 118.565ZM224.925 148.005L224.845 147.445L228.565 146.965C228.752 146.939 228.872 146.752 228.925 146.405L230.245 138.005H228.925L222.245 119.405L222.205 119.365C222.072 119.045 221.858 118.859 221.565 118.805L219.765 118.645C219.738 118.485 219.725 118.285 219.725 118.045L228.125 118.005C228.125 118.032 228.138 118.232 228.165 118.605L225.045 118.845L230.965 136.965L238.405 119.365C238.485 119.205 238.432 119.072 238.245 118.965C238.085 118.859 237.912 118.792 237.725 118.765L235.965 118.645C235.938 118.485 235.925 118.285 235.925 118.045L243.245 118.005C243.245 118.032 243.258 118.232 243.285 118.605L239.725 118.965L231.325 138.005L229.805 147.165L233.285 147.365C233.338 147.739 233.365 147.939 233.365 147.965L224.925 148.005ZM10.04 158.005C10.04 158.032 10.0533 158.232 10.08 158.605L7.32 158.845V185.205H18.36L19.16 178.805L19.92 179.005L19.32 186.005H10.04L2 186.045L2.04 185.485L4.12 185.205C4.38667 185.179 4.54667 185.005 4.6 184.685V159.365C4.54667 159.045 4.38667 158.872 4.12 158.845L2.04 158.645L2 158.045L10.04 158.005ZM27.2884 167.645V185.205L30.2884 185.405C30.2884 185.432 30.2751 185.632 30.2484 186.005L22.2484 186.045C22.2484 185.805 22.2618 185.619 22.2884 185.485L24.3684 185.205C24.5284 185.205 24.6351 185.085 24.6884 184.845V167.285C24.6351 167.099 24.5551 167.005 24.4484 167.005L22.0484 166.925L22.0884 166.365C23.5284 166.125 24.6218 166.005 25.3684 166.005C26.1151 166.005 26.6218 166.179 26.8884 166.525C27.1551 166.872 27.2884 167.245 27.2884 167.645ZM25.9284 160.645C25.3951 160.645 24.9818 160.485 24.6884 160.165C24.3951 159.819 24.2484 159.379 24.2484 158.845C24.2484 158.285 24.3951 157.845 24.6884 157.525C25.0084 157.179 25.4351 157.005 25.9684 157.005C26.5018 157.005 26.9284 157.179 27.2484 157.525C27.5951 157.845 27.7684 158.299 27.7684 158.885C27.7684 159.445 27.5951 159.885 27.2484 160.205C26.9018 160.499 26.4618 160.645 25.9284 160.645ZM37.9831 157.645V167.605C39.5831 166.299 41.3698 165.645 43.3431 165.645C45.1565 165.645 46.8631 166.205 48.4631 167.325C49.3165 167.939 49.9965 168.899 50.5031 170.205C51.0365 171.512 51.3031 173.099 51.3031 174.965C51.3031 178.512 50.4231 181.179 48.6631 182.965C46.6631 184.992 44.1298 186.005 41.0631 186.005C39.9165 186.005 38.7698 185.912 37.6231 185.725C36.5031 185.539 35.7565 185.325 35.3831 185.085V157.325C35.3298 157.112 35.2498 157.005 35.1431 157.005L32.7031 156.925L32.7431 156.365C34.4231 156.125 35.5698 156.005 36.1831 156.005C36.8231 156.005 37.2765 156.179 37.5431 156.525C37.8365 156.872 37.9831 157.245 37.9831 157.645ZM37.9831 168.365V185.285C38.7031 185.525 39.5431 185.645 40.5031 185.645C43.1165 185.645 45.1298 184.725 46.5431 182.885C47.9831 181.045 48.7031 178.472 48.7031 175.165C48.7031 171.539 47.9831 169.099 46.5431 167.845C45.4231 166.859 44.1298 166.365 42.6631 166.365C41.1965 166.365 39.6365 167.032 37.9831 168.365ZM59.115 167.645V170.845C61.2217 167.752 63.2883 166.179 65.315 166.125C65.475 166.125 65.635 166.125 65.795 166.125L68.035 166.405L66.995 168.805C66.4883 168.299 65.835 168.045 65.035 168.045C63.0883 168.072 61.115 169.365 59.115 171.925V185.205L62.515 185.405C62.515 185.432 62.5017 185.632 62.475 186.005L54.075 186.045C54.075 185.805 54.0883 185.619 54.115 185.485L56.195 185.205C56.4083 185.179 56.515 184.992 56.515 184.645V167.285C56.4617 167.099 56.3817 167.005 56.275 167.005L53.875 166.925L53.915 166.365C55.355 166.125 56.4483 166.005 57.195 166.005C57.9417 166.005 58.4483 166.179 58.715 166.525C58.9817 166.872 59.115 167.245 59.115 167.645ZM83.2672 184.485H83.1472C80.7472 185.605 78.4139 186.165 76.1472 186.165C72.6005 186.165 70.7205 184.765 70.5072 181.965C70.4805 181.779 70.4672 181.605 70.4672 181.445C70.4672 179.392 71.8139 178.019 74.5072 177.325C76.1072 176.979 78.9872 176.565 83.1472 176.085V172.565C83.1472 171.445 83.0139 170.485 82.7472 169.685C82.4805 168.885 82.1872 168.299 81.8672 167.925C81.5472 167.525 81.1339 167.219 80.6272 167.005C79.9872 166.739 79.2672 166.605 78.4672 166.605C77.6939 166.605 76.8005 166.805 75.7872 167.205C74.3205 167.819 73.0139 168.592 71.8672 169.525L71.7072 172.645L70.9472 172.845V168.005L71.3472 167.845C73.4272 166.939 75.0139 166.392 76.1072 166.205C77.2005 166.019 78.0005 165.925 78.5072 165.925C79.0139 165.899 79.4939 165.899 79.9472 165.925C80.4272 165.952 81.0405 166.072 81.7872 166.285C82.5339 166.499 83.1739 166.805 83.7072 167.205C84.2672 167.579 84.7472 168.152 85.1472 168.925C85.5472 169.699 85.7472 170.619 85.7472 171.685V183.925C85.7472 184.752 85.9605 185.165 86.3872 185.165L88.8272 185.285L88.7872 185.885C87.2939 186.099 85.9605 186.205 84.7872 186.205C84.4672 186.179 84.1339 186.019 83.7872 185.725C83.4405 185.405 83.2672 184.992 83.2672 184.485ZM76.8672 185.525C78.8405 185.525 80.9339 184.832 83.1472 183.445V176.845C79.1472 176.979 76.6272 177.219 75.5872 177.565C74.5739 177.885 73.8672 178.405 73.4672 179.125C73.0939 179.819 72.9072 180.512 72.9072 181.205C72.9072 181.339 72.9072 181.472 72.9072 181.605C72.9872 182.992 73.4005 183.992 74.1472 184.605C74.8939 185.219 75.8005 185.525 76.8672 185.525ZM95.2869 167.645V170.845C97.3935 167.752 99.4602 166.179 101.487 166.125C101.647 166.125 101.807 166.125 101.967 166.125L104.207 166.405L103.167 168.805C102.66 168.299 102.007 168.045 101.207 168.045C99.2602 168.072 97.2869 169.365 95.2869 171.925V185.205L98.6869 185.405C98.6869 185.432 98.6735 185.632 98.6469 186.005L90.2469 186.045C90.2469 185.805 90.2602 185.619 90.2869 185.485L92.3669 185.205C92.5802 185.179 92.6869 184.992 92.6869 184.645V167.285C92.6335 167.099 92.5535 167.005 92.4469 167.005L90.0469 166.925L90.0869 166.365C91.5269 166.125 92.6202 166.005 93.3669 166.005C94.1135 166.005 94.6202 166.179 94.8869 166.525C95.1535 166.872 95.2869 167.245 95.2869 167.645ZM111.488 196.005L111.408 195.445L115.128 194.965C115.314 194.939 115.434 194.752 115.488 194.405L116.808 186.005H115.488L108.808 167.405L108.768 167.365C108.634 167.045 108.421 166.859 108.128 166.805L106.328 166.645C106.301 166.485 106.288 166.285 106.288 166.045L114.688 166.005C114.688 166.032 114.701 166.232 114.728 166.605L111.608 166.845L117.528 184.965L124.968 167.365C125.048 167.205 124.994 167.072 124.808 166.965C124.648 166.859 124.474 166.792 124.288 166.765L122.528 166.645C122.501 166.485 122.488 166.285 122.488 166.045L129.808 166.005C129.808 166.032 129.821 166.232 129.848 166.605L126.288 166.965L117.888 186.005L116.368 195.165L119.848 195.365C119.901 195.739 119.928 195.939 119.928 195.965L111.488 196.005Z" fill="#FFF9DC"/>
</svg>
